<?xml version="1.0" encoding="utf-8"?>
<!-- Generator: Adobe Illustrator 21.0.0, SVG Export Plug-In . SVG Version: 6.00 Build 0)  -->
<svg version="1.1" id="Layer_1" xmlns="http://www.w3.org/2000/svg" xmlns:xlink="http://www.w3.org/1999/xlink" x="0px" y="0px"
	 viewBox="0 0 400.6 164.6" enable-background="new 0 0 400.6 164.6" xml:space="preserve">
<polygon fill="#FF6464" points="36.4,50.5 343.1,50.9 343,89 36.3,88.6 "/>
<g>
	<rect x="36.3" y="50.7" display="none" fill="#FF5F5F" width="306.8" height="38.1"/>
	<path fill="#666666" d="M111.2,60.3v3H99.3v-3.7c0-10.1-3.8-16-12.8-16c-9,0-12.8,5.9-12.8,15.8c0,25.1,37.6,27.5,37.6,59
		c0,17-8.2,28-25.3,28c-17.1,0-25.1-11-25.1-28v-6.4h11.7v7c0,10.1,4.2,16,13.1,16c9,0,13.1-5.9,13.1-16c0-25-37.4-27.4-37.4-58.9
		c0-17.3,8-28,24.8-28C103.2,32.3,111.2,43.3,111.2,60.3z"/>
	<path fill="#666666" d="M118.2,145.4v-112h12.5v100.6h32v11.4H118.2z"/>
	<path fill="#666666" d="M208,83v11.2h-27.4v39.8h33.6v11.4h-46.1v-112h46.1v11.4h-33.6V83H208z"/>
	<path fill="#666666" d="M261.6,83v11.2h-27.4v39.8h33.6v11.4h-46.1v-112h46.1v11.4h-33.6V83H261.6z"/>
	<path fill="#666666" d="M313.6,85.6v11.4h-25.8v48.5h-12.5v-112h44.5v11.4h-32v40.8H313.6z"/>
</g>
<g>
	<defs>
		
			<rect id="SVGID_1_" x="158.2" y="-96.2" transform="matrix(1.881049e-03 -1 1 1.881049e-03 132.183 246.7499)" width="63" height="306.8"/>
	</defs>
	<clipPath id="SVGID_2_">
		<use xlink:href="#SVGID_1_"  overflow="visible"/>
	</clipPath>
	<g clip-path="url(#SVGID_2_)" enable-background="new    ">
		<path fill="#353535" d="M111.2,60.3v3H99.3v-3.7c0-10.1-3.8-16-12.8-16c-9,0-12.8,5.9-12.8,15.8c0,25.1,37.6,27.5,37.6,59
			c0,17-8.2,28-25.3,28c-17.1,0-25.1-11-25.1-28v-6.4h11.7v7c0,10.1,4.2,16,13.1,16c9,0,13.1-5.9,13.1-16c0-25-37.4-27.4-37.4-58.9
			c0-17.3,8-28,24.8-28C103.2,32.3,111.2,43.3,111.2,60.3z"/>
		<path fill="#353535" d="M118.2,145.4v-112h12.5v100.6h32v11.4H118.2z"/>
		<path fill="#353535" d="M208,83v11.2h-27.4v39.8h33.6v11.4h-46.1v-112h46.1v11.4h-33.6V83H208z"/>
		<path fill="#353535" d="M261.6,83v11.2h-27.4v39.8h33.6v11.4h-46.1v-112h46.1v11.4h-33.6V83H261.6z"/>
		<path fill="#353535" d="M313.6,85.6v11.4h-25.8v48.5h-12.5v-112h44.5v11.4h-32v40.8H313.6z"/>
	</g>
</g>
</svg>
